<svg width="384" height="315" viewBox="0 0 384 315" fill="none" xmlns="http://www.w3.org/2000/svg">
<path d="M287.252 59.2659C293.884 67.5994 291.714 73.7705 280.742 77.7793C280.928 87.7649 275.107 91.9681 263.277 90.3889C256.962 98.8924 249.334 99.8035 240.392 93.1221C229.569 97.4225 222.564 94.7621 219.379 85.141C207.493 83.8776 203.33 78.4718 206.888 68.9235C197.704 62.4851 197.704 56.0467 206.888 49.6083C203.33 40.0601 207.493 34.6543 219.379 33.3909C222.564 23.7697 229.569 21.1093 240.392 25.4097C249.334 18.7283 256.962 19.6394 263.277 28.143C275.107 26.5637 280.928 30.7669 280.742 40.7525C291.714 44.7613 293.884 50.9324 287.252 59.2659Z" stroke="black" stroke-width="1.5" stroke-linecap="round" stroke-linejoin="round"/>
<path d="M236.567 31.2891C236.567 32.5351 240.062 39.0618 240.694 39.0618C241.252 39.0618 241.103 38.6168 239.579 35.5908C238.761 33.9888 237.98 32.3274 237.868 31.8528C237.645 31.1408 236.567 30.6661 236.567 31.2891ZM265.87 33.9591C264.494 35.5315 262.411 37.8751 261.259 39.1508C260.106 40.4265 259.288 41.5538 259.437 41.6725C259.771 41.9395 260.775 40.9308 265.163 35.9468C269.551 30.9331 269.44 31.0518 268.845 31.0518C268.585 31.0518 267.246 32.3571 265.87 33.9591ZM208.528 38.3795C207.895 38.9135 222.51 48.2585 223.997 48.2585C224.89 48.2585 223.811 47.3982 220.725 45.6478C218.903 44.6095 216.002 42.7702 214.254 41.6132C210.35 38.9728 208.862 38.1422 208.528 38.3795ZM240.471 43.0965C237.236 43.8975 234.521 45.8555 232.29 49.0299C228.757 53.9546 229.055 57.4553 233.554 64.783C237.31 70.924 237.757 72.2294 238.389 78.9637L238.723 82.7908L240.583 84.2148C242.07 85.3421 242.74 85.6388 243.706 85.6388C245.157 85.6388 246.905 84.8378 248.466 83.5027C249.731 82.3754 249.619 82.6128 250.735 78.6671C252.259 73.2084 253.71 68.877 254.193 68.2837C254.491 67.9573 255.718 66.7707 256.945 65.673C258.209 64.516 259.846 62.5876 260.701 61.1933C262.151 58.9089 262.226 58.6123 262.226 56.0906C262.226 50.5726 258.804 45.9445 253.115 43.6602C251.069 42.8592 250.512 42.7702 246.607 42.7108C243.558 42.6515 241.81 42.7702 240.471 43.0965ZM252.222 44.4315C255.234 45.6182 257.391 47.2795 258.842 49.4452C260.515 51.9669 261.11 53.7172 261.11 56.3873C261.11 58.5529 260.961 58.9683 259.622 61.134C258.618 62.825 257.354 64.1896 255.532 65.7027C252.854 67.9573 252.445 68.6397 251.59 72.259C251.069 74.2764 249.731 74.8104 244.859 74.8104C239.913 74.8104 239.318 74.484 238.352 71.3987C237.98 70.212 236.604 67.4233 235.228 65.1983C232.253 60.2736 231.36 58.2266 231.1 55.7049C230.765 52.2932 232.885 48.2882 236.418 45.6775C238.686 43.9865 240.583 43.5712 245.789 43.5415C249.731 43.5119 250.103 43.5712 252.222 44.4315ZM250.437 75.1664C250.549 75.3147 250.363 76.2047 250.065 77.1837C249.768 78.1627 249.285 79.7647 249.024 80.7141C248.727 81.6931 248.28 82.5831 248.02 82.7314C247.76 82.8501 246.719 82.9391 245.677 82.9391H243.818L246.198 82.0491C247.5 81.5744 248.466 81.0997 248.355 81.0107C248.243 80.9217 246.681 81.1591 244.896 81.5448C241.475 82.2864 239.913 82.3161 239.913 81.6634C239.913 81.4557 240.955 81.1591 242.516 80.9514C245.417 80.5657 248.206 79.7351 247.425 79.4977C247.128 79.4087 245.529 79.5867 243.818 79.8537C242.107 80.1504 240.471 80.2987 240.137 80.2097C239.542 80.0317 239.281 78.8451 239.839 78.7857C239.988 78.7857 240.769 78.7561 241.587 78.6967C243.186 78.6077 246.83 77.8067 247.723 77.3617C248.801 76.7684 247.834 76.7684 245.12 77.332C243.595 77.6584 241.698 77.9254 240.955 77.9254C239.579 77.9254 239.542 77.8957 239.542 76.7684V75.6114L243.186 75.7597C245.826 75.8784 247.202 75.7894 248.28 75.463C250.14 74.929 250.251 74.8994 250.437 75.1664ZM240.434 53.7172C238.575 54.3699 236.79 56.8619 238.166 56.8619C238.798 56.8619 239.281 57.6629 240.137 59.8879C240.508 60.8373 240.917 61.6086 241.103 61.6086C241.252 61.6086 241.401 61.8163 241.401 62.113C241.401 62.38 241.512 62.4986 241.624 62.4096C242.033 62.113 240.657 58.0189 239.727 56.6543C238.947 55.4973 238.909 55.3786 239.504 54.9929C241.587 53.5392 243.111 53.6579 242.777 55.2303C242.665 55.7939 242.702 56.2686 242.851 56.2686C243 56.2686 243.669 55.7939 244.376 55.2303C245.082 54.6666 245.863 54.1919 246.124 54.1919C246.681 54.1919 246.756 55.0226 246.272 55.6752C245.603 56.4763 246.31 56.6246 247.314 55.8829C248.243 55.1709 248.838 54.9633 249.917 55.0523C250.289 55.0819 250.363 55.3489 250.214 56.1203C249.991 57.2773 249.991 57.3069 251.702 56.8026C252.706 56.5059 253.04 56.5059 253.264 56.8026C253.487 57.0993 253.673 57.0696 254.044 56.7136C254.714 56.0609 253.896 55.6159 252.483 55.8533C251.627 55.9719 251.441 55.9126 251.441 55.4676C251.441 54.6369 250.698 54.1919 249.322 54.1919C248.652 54.1919 247.76 54.0139 247.351 53.8359C246.793 53.5392 246.347 53.5392 245.454 53.8062C244.487 54.1029 244.19 54.0732 243.744 53.7469C243.074 53.2129 241.959 53.2129 240.434 53.7172ZM250.549 59.0869C249.991 59.977 249.024 61.312 248.429 62.0536L247.388 63.3886L244.673 63.2106L241.959 63.003L242.07 67.275C242.145 69.6187 242.331 71.9327 242.479 72.437C242.74 73.238 242.814 73.149 243.074 71.5767C243.223 70.5977 243.26 68.4913 243.149 66.8893L242.963 63.982H244.599C245.752 63.982 246.31 64.1303 246.495 64.4566C246.681 64.872 246.124 70.0933 245.603 72.5557C245.454 73.327 245.529 73.505 245.9 73.416C246.495 73.2677 246.793 71.9327 247.276 67.3343C247.574 64.5457 247.76 63.893 248.578 63.0326C250.326 61.134 252.52 57.4553 251.888 57.4553C251.739 57.4553 251.144 58.1969 250.549 59.0869ZM286.211 47.2796C282.492 47.6652 268.213 50.4836 267.655 50.9582C267.023 51.4329 268.659 51.2549 273.233 50.3352C277.1 49.5342 287.959 47.6652 288.74 47.6652C288.889 47.6652 289 47.5169 289 47.3685C289 47.0719 288.368 47.0422 286.211 47.2796ZM222.25 60.422C220.204 60.7186 215.444 61.3713 211.651 61.8756C207.858 62.4096 204.623 62.9733 204.437 63.1216C203.768 63.626 207.3 63.359 214.254 62.38C216.002 62.1426 219.498 61.6383 222.064 61.312C224.63 60.956 226.749 60.6296 226.824 60.5703C227.047 60.422 226.526 59.8286 226.229 59.8583C226.08 59.888 224.295 60.1253 222.25 60.422ZM267.395 63.3293C268.436 63.893 270.332 64.5456 277.286 66.7113C284.277 68.8473 286.174 69.322 286.546 69.0253C286.769 68.8473 286.546 68.6397 285.988 68.4617C285.505 68.3133 281.749 67.1563 277.658 65.9103C267.58 62.7953 267.692 62.825 267.06 62.825C266.688 62.825 266.8 63.003 267.395 63.3293ZM226.489 73.6534C220.39 77.9254 219.461 78.6077 219.647 78.7857C219.758 78.8747 219.981 78.8154 220.13 78.6671C220.279 78.4891 220.985 78.0441 221.692 77.6287C224.332 76.1454 229.018 72.704 228.683 72.437C228.571 72.348 227.567 72.882 226.489 73.6534ZM98.1568 73.06C96.5206 73.772 96 74.8994 96 77.8957C96 80.7437 96.4834 82.1084 98.1197 84.2444C98.6403 84.8674 99.4956 85.6091 100.091 85.8761C100.834 86.2024 101.206 86.6771 101.318 87.4188C101.578 88.5758 102.545 93.0851 103.028 95.1322C103.846 98.5142 105.743 107.325 106.04 108.927C106.412 110.915 108.755 121.298 109.424 123.998C109.871 125.689 109.945 125.778 113.813 128.448C122.923 134.797 135.716 143.133 145.793 149.304L149.735 151.707L149.661 153.457C149.661 154.407 149.438 157.017 149.214 159.213C148.843 163.218 148.396 172.563 147.653 191.994C147.318 201.488 146.797 206.798 145.83 211.13C145.421 213.088 144.603 216.766 143.785 220.623C143.451 222.166 143.041 223.975 142.856 224.628C142.67 225.281 141.926 228.01 141.182 230.71C140.476 233.409 139.211 237.859 138.393 240.648C137.575 243.407 136.757 246.285 136.534 247.026C136.348 247.768 135.79 249.815 135.232 251.625C134.712 253.405 134.117 255.481 133.893 256.223C130.509 268.149 129.394 272.184 128.539 275.803C127.981 278.177 127.349 280.609 127.163 281.203L126.865 282.3L124.151 281.499C121.696 280.758 121.027 280.698 115.635 280.698C110.28 280.698 109.722 280.758 108.755 281.321C108.123 281.707 107.714 282.211 107.714 282.656C107.714 283.25 108.086 283.487 109.945 284.11C111.953 284.763 112.771 284.852 118.684 284.941C124.374 285.03 125.34 284.97 126.493 284.496C127.683 283.991 127.795 283.843 128.241 281.588C129.431 275.714 132.406 264.827 138.207 244.801C139.657 239.817 142.521 229.701 143.041 227.743C143.376 226.527 143.785 224.925 143.971 224.183C144.157 223.441 144.864 220.386 145.459 217.36C146.091 214.334 146.835 210.685 147.132 209.261C147.764 206.205 148.062 205.701 148.545 206.709C149.029 207.718 150.479 211.545 152.004 215.728C154.198 221.899 154.421 222.522 154.755 223.293C154.941 223.708 156.466 227.713 158.102 232.193C159.776 236.673 164.87 249.37 169.444 260.377C174.055 271.383 178.109 281.143 178.443 282.033C179.038 283.487 179.262 283.695 180.526 284.021C183.017 284.674 186.439 285 191.013 285C194.954 285 195.661 284.911 196.963 284.318C198.971 283.398 199.008 282.864 197.074 282.152C195.735 281.677 194.62 281.588 189.711 281.588C185.955 281.588 183.464 281.737 182.571 281.974C180.34 282.597 179.931 282.33 178.927 279.601C178.443 278.236 176.026 272.451 173.609 266.755C168.329 254.324 161.375 237.474 160.519 235.011C160.147 234.032 159.664 232.697 159.404 232.045C159.143 231.392 158.586 229.909 158.139 228.781C157.73 227.624 156.763 225.103 156.02 223.145C154.681 219.585 153.863 217.389 153.268 215.728C152.375 213.236 151.706 211.545 150.219 208.015L148.62 204.158V197.779C148.62 190.778 149.438 167.134 149.735 166.184C149.809 165.858 150.07 163.574 150.293 161.141C150.516 158.679 150.851 155.534 151.074 154.11L151.52 151.529L152.859 151.173C154.83 150.669 164.312 147.672 166.469 146.901C167.51 146.515 171.155 145.18 174.65 143.934C178.109 142.688 184.059 140.433 187.852 138.98C191.645 137.496 196.777 135.509 199.268 134.559C201.76 133.61 203.916 132.661 204.102 132.423C204.251 132.186 205.776 130.821 207.412 129.368C211.614 125.719 220.279 117.709 223.142 114.861C227.902 110.084 228.014 109.966 229.129 109.966C230.468 109.966 233.108 108.364 234.075 106.999C234.93 105.783 235.079 102.43 234.298 101.451C233.74 100.71 232.439 100.176 231.174 100.176C230.059 100.176 228.2 101.689 227.158 103.439C226.34 104.833 226.08 108.275 226.638 109.521C226.861 109.995 226.154 110.885 222.956 113.971C214.292 122.396 203.024 132.394 201.871 132.69C201.425 132.809 196.293 134.767 190.455 137.022C180.005 141.116 171.787 144.201 169.258 144.972C168.552 145.18 167.808 145.477 167.585 145.595C166.135 146.456 152.375 150.609 151.818 150.342C151.557 150.194 151.557 149.511 151.78 148.236C151.966 147.168 152.227 145.002 152.338 143.4C152.636 140.137 152.301 140.404 156.726 140.077C161.598 139.692 168.143 137.407 171.713 134.797C174.353 132.868 176.807 130.228 178.406 127.558C180.34 124.354 180.786 122.752 180.786 118.717C180.786 115.662 180.637 114.801 179.819 112.784C178.629 109.877 177.811 108.542 175.729 106.228C172.754 102.875 168.18 100.087 162.825 98.3362C160.147 97.4462 159.813 97.2385 159.218 96.1705C157.582 93.1148 151.297 90.6821 145.087 90.6821C142.335 90.6821 140.55 91.0678 141.74 91.3941C142.037 91.4535 143.822 91.5721 145.645 91.6611C148.396 91.7502 149.512 91.9578 151.966 92.7588C154.904 93.7378 158.102 95.6958 158.102 96.4968C158.102 96.9715 157.953 97.0012 154.793 96.9122C152.747 96.8528 152.227 96.7342 150.814 95.8738C149.921 95.3398 148.248 94.5982 147.058 94.2125C142.595 92.8775 133.224 93.5598 130.547 95.4585C129.543 96.1408 129.282 96.1705 133.931 95.1025C137.687 94.2422 142.893 94.2422 145.979 95.1322C149.772 96.1705 150.888 97.0308 148.917 97.3868C148.322 97.4758 146.202 98.0395 144.157 98.6032C142.112 99.1669 140.104 99.7009 139.695 99.7899C138.542 100.057 134.228 102.401 133.224 103.291C130.026 106.257 128.241 108.749 126.642 112.547C125.34 115.632 124.931 122.396 125.898 125.392C126.642 127.677 128.464 130.376 130.547 132.275C134.674 136.013 142.967 139.454 149.363 140.077L151.52 140.315L151.26 142.718C150.962 145.922 150.256 149.808 149.921 150.105C149.4 150.579 121.733 132.779 112.697 126.104C110.949 124.829 110.689 124.384 110.131 121.684C109.945 120.853 109.015 116.581 108.086 112.191C105.074 98.1285 104.665 96.2892 103.437 90.8898C102.322 85.9354 102.285 85.5498 102.842 84.6301C104.888 81.1591 104.144 75.6114 101.318 73.3567C100.239 72.4964 99.6071 72.4074 98.1568 73.06ZM101.466 75.5224C102.731 77.4804 103.251 80.4767 102.694 82.3754C102.247 83.8588 101.243 85.0454 100.462 85.0454C99.7931 85.0454 97.8593 82.3161 97.0784 80.2987C96.2603 78.2221 96.3719 76.4124 97.3387 74.8994C98.5287 73.0897 100.053 73.327 101.466 75.5224ZM156.54 98.2472C159.255 98.4548 161.151 98.9295 164.275 100.205C174.353 104.299 180.117 112.072 179.447 120.557C179.224 123.197 178.667 125.096 177.588 126.876C177.105 127.706 176.696 128.448 176.696 128.537C176.696 128.656 175.952 129.575 175.022 130.584C171.601 134.441 166.655 137.17 160.817 138.446C156.726 139.336 150.293 139.276 146.054 138.297C136.943 136.191 130.1 131.504 127.349 125.541C126.307 123.227 126.419 115.958 127.572 112.932C130.472 105.427 135.79 100.828 142.744 99.8789C146.351 99.3745 146.574 99.3152 146.351 98.8702C146.202 98.5439 146.649 98.3955 148.136 98.2768C151.594 97.9802 152.673 97.9209 153.454 97.9802C153.863 98.0395 155.239 98.1582 156.54 98.2472ZM232.699 101.748C233.554 102.341 233.703 102.668 233.666 104.092C233.666 105.99 232.997 107.207 231.36 108.304C229.984 109.224 228.757 109.283 227.828 108.482C226.935 107.681 227.195 104.893 228.348 103.113C229.761 100.917 230.951 100.561 232.699 101.748ZM119.428 281.44C122.514 281.855 127.051 283.19 126.568 283.576C125.935 284.08 120.841 284.436 117.197 284.229C113.627 284.021 109.239 283.19 108.792 282.597C107.9 281.44 114.11 280.787 119.428 281.44ZM195.401 282.597C197.26 282.953 197.483 283.161 196.591 283.724C195.14 284.585 180.637 283.813 181.753 282.923C182.757 282.152 191.794 281.944 195.401 282.597ZM157.544 101.659C157.656 101.807 158.325 102.163 158.995 102.401C159.701 102.668 160.928 103.35 161.746 103.914C162.713 104.566 163.346 104.804 163.494 104.596C163.829 104.181 162.416 103.024 160.482 102.104C158.92 101.362 157.098 101.095 157.544 101.659ZM143.227 103.528C140.996 104.922 140.029 105.753 140.327 105.961C140.438 106.05 141.256 105.605 142.149 104.982C143.041 104.329 144.306 103.617 144.975 103.35C146.425 102.757 146.872 102.252 145.942 102.252C145.57 102.252 144.343 102.816 143.227 103.528ZM145.161 106.317C143.636 107.503 142.818 109.966 143.451 111.271C144.194 112.814 146.946 112.22 147.69 110.381C148.285 108.927 147.95 106.791 147.02 106.02L146.24 105.427L145.161 106.317ZM156.131 105.842C155.239 106.257 154.495 107.503 154.198 109.135C153.863 110.856 154.16 111.568 155.313 111.983C156.094 112.28 156.392 112.22 157.321 111.568C158.697 110.648 159.292 109.046 158.883 107.503C158.362 105.664 157.544 105.189 156.131 105.842ZM170.932 118.243C166.915 119.904 161.598 121.209 154.978 122.129C152.041 122.515 142.67 122.515 140.178 122.099C139.1 121.921 137.352 121.387 136.273 120.913C135.195 120.438 134.265 120.171 134.154 120.319C133.708 120.883 136.645 122.277 139.695 122.9C143.562 123.731 154.123 123.345 160.519 122.129C166.544 120.972 174.093 118.332 174.093 117.353C174.093 116.967 173.832 117.026 170.932 118.243ZM259.251 73.95C259.251 74.2467 259.883 75.0774 260.664 75.819C261.445 76.5607 263.044 78.2221 264.196 79.4681C266.019 81.4557 267.06 82.2271 267.06 81.6337C267.06 81.0107 260.664 74.128 259.622 73.6237C259.399 73.5347 259.251 73.683 259.251 73.95ZM202.094 92.9665C200.756 93.1741 197.855 95.4585 197.111 96.8528C195.215 100.354 197.297 103.053 202.169 103.38C204.102 103.498 204.846 103.409 206.222 102.846C210.684 101.155 211.354 95.4585 207.375 93.6192C206.185 93.0555 203.433 92.7291 202.094 92.9665ZM205.701 94.2422C207.449 94.9542 208.156 95.7552 208.49 97.3868C208.825 99.1372 208.156 100.917 206.854 101.629C205.181 102.579 201.165 102.519 199.528 101.511C196.925 99.9382 197.223 96.7935 200.161 94.6872C201.871 93.4412 203.47 93.3225 205.701 94.2422ZM189.525 106.05C188 106.821 187.48 107.355 187.22 108.571C186.922 110.025 188.038 110.856 190.269 110.856C191.645 110.856 192.128 110.707 193.244 109.817C194.285 108.957 194.545 108.542 194.545 107.563C194.545 106.495 194.434 106.346 193.244 105.931C191.57 105.397 190.864 105.397 189.525 106.05ZM192.612 106.88C193.727 107.503 193.653 108.601 192.463 109.343C191.161 110.173 189.525 110.144 188.819 109.313C188 108.393 188.075 107.978 189.153 107.147C190.194 106.287 191.422 106.198 192.612 106.88Z" fill="black"/>
</svg>
